<svg width="40" height="40" viewBox="0 0 40 40" fill="none" xmlns="http://www.w3.org/2000/svg">
<circle cx="20" cy="20" r="20" fill="white"/>
<path d="M19.5512 27.9998C24.2172 27.9998 27.9998 24.2172 27.9998 19.5512C27.9998 14.8851 24.2172 11.1025 19.5512 11.1025C14.8851 11.1025 11.1025 14.8851 11.1025 19.5512C11.1025 24.2172 14.8851 27.9998 19.5512 27.9998Z" stroke="#FB6D3A" stroke-width="1.67823" stroke-linecap="round" stroke-linejoin="round"/>
<path d="M17.0928 17.0163C17.2914 16.4516 17.6835 15.9755 18.1995 15.6722C18.7156 15.3689 19.3223 15.258 19.9122 15.3592C20.5022 15.4604 21.0373 15.7672 21.4228 16.2251C21.8082 16.683 22.0192 17.2626 22.0183 17.8611C22.0183 19.5509 19.4837 20.3957 19.4837 20.3957" stroke="#FB6D3A" stroke-width="1.67823" stroke-linecap="round" stroke-linejoin="round"/>
<path d="M19.5518 23.7339H19.5598" stroke="#FB6D3A" stroke-width="1.67823" stroke-linecap="round" stroke-linejoin="round"/>
</svg>
