<svg viewBox="0 0 46 46" xmlns="http://www.w3.org/2000/svg" xmlns:xlink="http://www.w3.org/1999/xlink" width="46.000000" height="46.000000" fill="none" customFrame="#000000">
	<g id="Filter">
		<rect id="Rectangle 1351" width="46.000000" height="46.000000" x="0.000000" y="0.000000" rx="23.000000" fill="rgb(236,240,244)" />
		<g id="Group 1757">
			<path id="Vector" d="M7 0L0 0" stroke="rgb(24,28,46)" stroke-linecap="round" stroke-linejoin="round" stroke-width="2" transform="matrix(0,1,-1,0,15.5,26)" />
			<path id="Vector" d="M7 0L0 0" stroke="rgb(24,28,46)" stroke-linecap="round" stroke-linejoin="round" stroke-width="2" transform="matrix(0,1,-1,0,15.5,15)" />
			<path id="Vector" d="M9 0L0 0" stroke="rgb(24,28,46)" stroke-linecap="round" stroke-linejoin="round" stroke-width="2" transform="matrix(0,1,-1,0,23.5,24)" />
			<path id="Vector" d="M5 0L0 0" stroke="rgb(24,28,46)" stroke-linecap="round" stroke-linejoin="round" stroke-width="2" transform="matrix(0,1,-1,0,23.5,15)" />
			<path id="Vector" d="M5 0L0 0" stroke="rgb(24,28,46)" stroke-linecap="round" stroke-linejoin="round" stroke-width="2" transform="matrix(0,1,-1,0,31.5,28)" />
			<path id="Vector" d="M9 0L0 0" stroke="rgb(24,28,46)" stroke-linecap="round" stroke-linejoin="round" stroke-width="2" transform="matrix(0,1,-1,0,31.5,15)" />
			<path id="Vector" d="M12.5 26L18.5 26" stroke="rgb(245,141,29)" stroke-linecap="round" stroke-linejoin="round" stroke-width="2" />
			<path id="Vector" d="M20.5 20L26.5 20" stroke="rgb(245,141,29)" stroke-linecap="round" stroke-linejoin="round" stroke-width="2" />
			<path id="Vector" d="M28.5 28L34.5 28" stroke="rgb(245,141,29)" stroke-linecap="round" stroke-linejoin="round" stroke-width="2" />
		</g>
	</g>
</svg>
