<svg viewBox="0 0 121.125 58.882" xmlns="http://www.w3.org/2000/svg" xmlns:xlink="http://www.w3.org/1999/xlink" width="121.125488" height="58.881958" fill="none" customFrame="#000000">
	<g id="Logo">
		<path id="F d" d="M4.07071 56.1656C6.40538 56.1656 8.08155 54.3697 8.08155 52.035L8.08155 40.4215L19.5155 40.4215C21.6107 40.4215 23.227 38.865 23.227 36.7698C23.227 34.7345 21.6705 33.1182 19.5155 33.1182L8.08155 33.1182L8.08155 23.2407L22.7481 23.2407C24.8433 23.2407 26.4596 21.6244 26.4596 19.589C26.4596 17.4938 24.9032 15.9374 22.7481 15.9374L4.13057 15.9374C1.73604 15.9374 0 17.6734 0 20.0679L0 52.035C0 54.3697 1.67617 56.1656 4.07071 56.1656Z" fill="rgb(24,28,46)" fill-rule="nonzero" />
		<circle id="Ellipse 1488" cx="103.46032" cy="40.7266769" r="13.73913" stroke="rgb(231.625,231.625,231.625)" stroke-linejoin="round" stroke-dasharray="0.986505 2.95952 " stroke-width="0.736024857" />
		<path id="Ellipse 1470" d="M86.537 41.7885C86.537 49.2415 80.4952 55.2834 73.0422 55.2834C65.5892 55.2834 59.5474 49.2415 59.5474 41.7885C59.5474 34.3355 65.5892 28.2937 73.0422 28.2937C80.4952 28.2937 86.537 34.3355 86.537 41.7885ZM67.5294 41.7885C67.5294 44.8331 69.9976 47.3013 73.0422 47.3013C76.0868 47.3013 78.555 44.8331 78.555 41.7885C78.555 38.7439 76.0868 36.2758 73.0422 36.2758C69.9976 36.2758 67.5294 38.7439 67.5294 41.7885Z" fill="rgb(255,118.19,34)" fill-rule="nonzero" />
		<path id="Ellipse 1471" d="M55.4989 41.7885C55.4989 49.2415 49.4571 55.2834 42.0041 55.2834C34.5511 55.2834 28.5093 49.2415 28.5093 41.7885C28.5093 34.3355 34.5511 28.2937 42.0041 28.2937C49.4571 28.2937 55.4989 34.3355 55.4989 41.7885ZM36.4914 41.7885C36.4914 44.8331 38.9595 47.3013 42.0041 47.3013C45.0487 47.3013 47.5169 44.8331 47.5169 41.7885C47.5169 38.7439 45.0487 36.2758 42.0041 36.2758C38.9595 36.2758 36.4914 38.7439 36.4914 41.7885Z" fill="rgb(255,118.19,34)" fill-rule="nonzero" />
		<path id="Line 1688 (Stroke)" d="M22.498 51.2409C22.498 50.9957 22.6968 50.797 22.942 50.797L29.7012 50.797C29.9464 50.797 30.1451 50.9957 30.1451 51.2409C30.1451 51.4861 29.9464 51.6848 29.7012 51.6848L22.942 51.6848C22.6968 51.6848 22.498 51.4861 22.498 51.2409Z" fill="rgb(255,118.19,34)" fill-rule="evenodd" />
		<path id="Line 1689 (Stroke)" d="M53.5771 51.2409C53.5771 50.9957 53.7759 50.797 54.0211 50.797L60.7803 50.797C61.0255 50.797 61.2242 50.9957 61.2242 51.2409C61.2242 51.4861 61.0255 51.6848 60.7803 51.6848L54.0211 51.6848C53.7759 51.6848 53.5771 51.4861 53.5771 51.2409Z" fill="rgb(255,118.19,34)" fill-rule="evenodd" />
		<path id="Line 1690 (Stroke)" d="M17.1001 54.8394C17.1001 54.5943 17.2988 54.3955 17.544 54.3955L29.7012 54.3955C29.9464 54.3955 30.1451 54.5943 30.1451 54.8394C30.1451 55.0846 29.9464 55.2833 29.7012 55.2833L17.544 55.2833C17.2988 55.2833 17.1001 55.0846 17.1001 54.8394Z" fill="rgb(255,118.19,34)" fill-rule="evenodd" />
		<path id="Line 1691 (Stroke)" d="M48.1792 54.8394C48.1792 54.5943 48.3779 54.3955 48.6231 54.3955L60.7803 54.3955C61.0255 54.3955 61.2242 54.5943 61.2242 54.8394C61.2242 55.0846 61.0255 55.2833 60.7803 55.2833L48.6231 55.2833C48.3779 55.2833 48.1792 55.0846 48.1792 54.8394Z" fill="rgb(255,118.19,34)" fill-rule="evenodd" />
		<path id="Line 1692 (Stroke)" d="M22.498 58.438C22.498 58.1929 22.6968 57.9941 22.942 57.9941L35.0991 57.9941C35.3443 57.9941 35.5431 58.1929 35.5431 58.438C35.5431 58.6832 35.3443 58.882 35.0991 58.882L22.942 58.882C22.6968 58.882 22.498 58.6832 22.498 58.438Z" fill="rgb(255,118.19,34)" fill-rule="evenodd" />
		<path id="Line 1693 (Stroke)" d="M53.5771 58.438C53.5771 58.1929 53.7759 57.9941 54.0211 57.9941L66.1782 57.9941C66.4234 57.9941 66.6222 58.1929 66.6222 58.438C66.6222 58.6832 66.4234 58.882 66.1782 58.882L54.0211 58.882C53.7759 58.882 53.5771 58.6832 53.5771 58.438Z" fill="rgb(255,118.19,34)" fill-rule="evenodd" />
		<path id="Ellipse 1476" d="M77.4543 26.7422C78.5383 26.7422 79.4264 25.8615 79.3269 24.7821C78.8713 19.84 76.7035 15.1874 73.1653 11.6492C69.1624 7.64627 63.7332 5.39746 58.0723 5.39746C52.4113 5.39746 46.9822 7.64627 42.9793 11.6492C39.441 15.1874 37.2733 19.84 36.8177 24.7821C36.7182 25.8615 37.6063 26.7422 38.6903 26.7422L58.0723 26.7422L77.4543 26.7422Z" fill="rgb(255,118.19,34)" fill-rule="nonzero" />
		<path id="Ellipse 1477" d="M60.771 3.92542C60.771 5.5514 59.5628 6.86952 58.0723 6.86952C56.5818 6.86952 55.3735 5.5514 55.3735 3.92542C55.3735 2.29944 56.5818 0.981323 58.0723 0.981323C59.5628 0.981323 60.771 2.29944 60.771 3.92542Z" fill="rgb(255,255,255)" fill-rule="nonzero" />
		<path id="Ellipse 1477 (Stroke)" d="M58.0722 1.96273C57.2024 1.96273 56.3548 2.75935 56.3548 3.92547C56.3548 5.09158 57.2024 5.8882 58.0722 5.8882C58.9421 5.8882 59.7896 5.09158 59.7896 3.92547C59.7896 2.75935 58.9421 1.96273 58.0722 1.96273ZM54.3921 3.92547C54.3921 1.83962 55.9611 0 58.0722 0C60.1833 0 61.7523 1.83962 61.7523 3.92547C61.7523 6.01131 60.1833 7.85093 58.0722 7.85093C55.9611 7.85093 54.3921 6.01131 54.3921 3.92547Z" fill="rgb(255,118.19,34)" fill-rule="evenodd" />
		<path id="Ellipse 1478" d="M49.3563 12.0222C49.1182 11.6268 48.6052 11.4947 48.2182 11.7462C45.2922 13.6475 42.9958 16.3541 41.614 19.5294C41.4255 19.9627 41.6527 20.4572 42.0962 20.6203C42.534 20.7814 43.0177 20.5583 43.2057 20.1313C44.4455 17.3144 46.4825 14.9088 49.0718 13.2035C49.4639 12.9452 49.5985 12.4244 49.3563 12.0222Z" fill="rgb(255,255,255)" fill-rule="nonzero" />
		<path id="Ellipse 1479" d="M52.7665 10.4994C52.6212 10.0611 52.1487 9.82009 51.7163 9.98201C51.2529 10.1555 50.7971 10.3478 50.3499 10.5586C49.9256 10.7586 49.7714 11.2764 49.996 11.6882C50.2169 12.0934 50.7219 12.2432 51.1401 12.048C51.4987 11.8807 51.8635 11.7263 52.2336 11.5854C52.6702 11.4191 52.9136 10.9428 52.7665 10.4994Z" fill="rgb(255,255,255)" fill-rule="nonzero" />
		<g id="Group 3070">
			<rect id="Rectangle 1569" width="9.322982" height="40.236023" x="111.802246" y="15.211182" rx="4.661491" fill="rgb(24,28,46)" />
			<path id="Ellipse 1489" d="M103.706 26.4968C111.7 26.4968 118.181 32.9776 118.181 40.972C118.181 48.9664 111.7 55.4471 103.706 55.4471C95.7112 55.4471 89.2305 48.9664 89.2305 40.972C89.2305 32.9776 95.7112 26.4968 103.706 26.4968ZM103.706 35.0588C106.971 35.0588 109.619 37.7062 109.619 40.972C109.619 44.2378 106.971 46.8852 103.706 46.8852C100.44 46.8852 97.7924 44.2378 97.7924 40.972C97.7924 37.7062 100.44 35.0588 103.706 35.0588Z" fill="rgb(24,28,46)" fill-rule="evenodd" />
		</g>
	</g>
</svg>
