<svg viewBox="0 0 20.1846 20.5483" xmlns="http://www.w3.org/2000/svg" xmlns:xlink="http://www.w3.org/1999/xlink" width="20.184570" height="20.548340" fill="none" customFrame="#000000">
	<path id="Star 1" d="M12.2811 7.33514C12.3078 7.41791 12.3849 7.47408 12.4718 7.47408L18.9827 7.45817C19.1769 7.45817 19.2577 7.70779 19.1003 7.82159L13.8246 11.6371C13.7541 11.688 13.7247 11.7787 13.7517 11.8613L15.7772 18.0491C15.8376 18.2337 15.6261 18.3874 15.4692 18.2729L10.2102 14.4344C10.1399 14.3831 10.0446 14.3831 9.97437 14.4344L4.71534 18.2729C4.55849 18.3874 4.34694 18.2337 4.40736 18.0491L6.43286 11.8613C6.45991 11.7787 6.43045 11.688 6.35998 11.6371L1.08422 7.82158C0.92688 7.70779 1.00768 7.45817 1.20186 7.45817L7.71272 7.47407C7.79969 7.47407 7.87681 7.41791 7.90351 7.33514L9.90194 1.13855C9.96154 0.953734 10.223 0.953734 10.2826 1.13855L12.2811 7.33514Z" fill="rgb(255,189,105)" fill-opacity="0" fill-rule="evenodd" />
	<path id="Star 1" d="M12.2811 7.33514C12.3078 7.41791 12.3849 7.47408 12.4718 7.47408L18.9827 7.45817C19.1769 7.45817 19.2577 7.70779 19.1003 7.82159L13.8246 11.6371C13.7541 11.688 13.7247 11.7787 13.7517 11.8613L15.7772 18.0491C15.8376 18.2337 15.6261 18.3874 15.4692 18.2729L10.2102 14.4344C10.1399 14.3831 10.0446 14.3831 9.97437 14.4344L4.71534 18.2729C4.55849 18.3874 4.34694 18.2337 4.40736 18.0491L6.43286 11.8613C6.45991 11.7787 6.43045 11.688 6.35998 11.6371L1.08422 7.82158C0.92688 7.70779 1.00768 7.45817 1.20186 7.45817L7.71272 7.47407C7.79969 7.47407 7.87681 7.41791 7.90351 7.33514L9.90194 1.13855C9.96154 0.953734 10.223 0.953734 10.2826 1.13855L12.2811 7.33514Z" fill-rule="evenodd" stroke="rgb(255,118,34)" stroke-width="2" />
</svg>
